<svg xmlns="http://www.w3.org/2000/svg" height="800" width="1200" viewBox="-25.2249 -28.885 218.6158 173.31"><path fill="#000a12" d="M88.276 0c-14.668 0-27.92 3.694-38.371 10.523l-17.58.016s4.148 5.537 5.494 11.121c-3.425 4.658-5.48 10.386-5.48 16.6 0 15.48 12.6 28.053 28.085 28.053 8.847 0 16.736-4.105 21.89-10.514l5.972 8.928 6.031-9.004a27.794 27.794 0 0010.307 8.121c6.82 3.134 14.446 3.44 21.482.848 14.53-5.363 21.98-21.544 16.615-36.06a27.786 27.786 0 00-3.808-6.997c1.324-5.62 5.521-11.23 5.521-11.23l-18.734-.013C115.19 3.603 102.42 0 88.274 0zM30.444 81.868a2.235 2.235 0 00-2.23 2.233 2.23 2.23 0 004.458 0 2.236 2.236 0 00-2.228-2.233zm-23.06 1.988l-.26.094-3.378 1.158v4.41H0v2.96h3.637v9.49c0 4.521 1.54 6.363 5.31 6.363.963 0 1.879-.123 2.799-.369l.143-.041-.038-3.06-.265.085c-.736.267-1.319.393-1.774.393-1.765 0-2.427-1-2.427-3.691v-9.17h4.326v-2.96H7.385v-5.661zm38.177 5.229c-2.57 0-4.735 1.227-6.176 3.437V89.52h-3.428v26.02h3.748v-10.091c1.354 1.84 3.297 2.847 5.713 2.847 4.74 0 7.797-3.885 7.797-9.89 0-5.575-3.07-9.32-7.654-9.32zm-21.73.107c-2.173 0-3.925 1.175-5.023 3.327v-3h-3.425v18.486h3.748v-9.278c0-3.896 1.634-6.033 4.595-6.033.427 0 .847.065 1.352.207l.242.07.121-3.65-1.61-.129zm4.743.327v18.486h3.75V89.519h-3.75zm16.086 2.668c2.898 0 4.633 2.404 4.633 6.433 0 4.104-1.833 6.645-4.776 6.645-2.967 0-4.812-2.53-4.812-6.612 0-3.926 1.945-6.466 4.955-6.466z"/><path fill="#fcc40f" d="M115.482 10.318a28.015 28.015 0 00-8.839 1.695c-7.039 2.605-12.639 7.787-15.777 14.603-1.418 3.075-2.22 6.326-2.475 9.597-1.043-14.34-12.878-25.716-27.413-26.003C69.02 6.77 78.256 4.9 88.27 4.9c10.08 0 19.18 1.817 27.213 5.418"/><path fill="#fff" d="M60.424 15.848c-12.358 0-22.414 10.051-22.414 22.412 0 12.348 10.057 22.4 22.414 22.4 12.35 0 22.404-10.053 22.404-22.4 0-12.361-10.053-22.412-22.404-22.412zm54.389.1a22.324 22.324 0 00-7.694 1.386A22.263 22.263 0 0094.523 28.98a22.277 22.277 0 00-.66 17.137v.004A22.222 22.222 0 00105.5 58.707a22.276 22.276 0 0017.145.684c11.592-4.293 17.54-17.212 13.264-28.793-3.344-9.06-11.959-14.67-21.096-14.65z"/><path fill="#000a12" d="M60.075 24.147c-7.655 0-13.88 6.221-13.88 13.861 0 7.644 6.225 13.869 13.88 13.869 7.635 0 13.85-6.225 13.85-13.869 0-7.64-6.215-13.861-13.85-13.861zm56.246 0c-7.648 0-13.87 6.221-13.87 13.861 0 7.644 6.222 13.869 13.87 13.869 7.642 0 13.859-6.225 13.859-13.869 0-7.64-6.217-13.861-13.86-13.861z"/><path fill="#fff" d="M60.075 28.922c-5.023 0-9.108 4.077-9.108 9.086 0 5.011 4.085 9.098 9.108 9.098 5 0 9.072-4.087 9.072-9.098 0-5.009-4.072-9.086-9.072-9.086zm56.246 0c-5.013 0-9.092 4.077-9.092 9.086 0 5.011 4.08 9.098 9.092 9.098 5.009 0 9.082-4.087 9.082-9.098 0-5.009-4.073-9.086-9.082-9.086z"/><path fill="#ef6a45" d="M64.72 38.006a4.675 4.675 0 01-4.666 4.669 4.67 4.67 0 01-4.667-4.669 4.667 4.667 0 019.333 0"/><path fill="#00b087" d="M116.322 33.342a4.657 4.657 0 00-4.662 4.666 4.664 4.664 0 004.662 4.668 4.668 4.668 0 000-9.334zM87.03 80.696V92.03c-1.381-1.924-3.303-2.945-5.783-2.945-4.578 0-7.653 3.777-7.653 9.388 0 5.783 3.113 9.823 7.584 9.823 2.647 0 4.706-1.173 6.14-3.452v3.16h3.464V80.697H87.03zm28.195 1.172a2.229 2.229 0 100 4.46 2.229 2.229 0 000-4.46zm-51.06 7.217c-2.285 0-4.292.433-6.136 1.322l-.115.053.043 3.2.29-.165c1.765-.986 3.428-1.49 4.952-1.49 2.713 0 4.266 1.557 4.266 4.273v.156h-2.143c-6.167 0-9.568 2.236-9.568 6.293 0 3.257 2.452 5.532 5.96 5.532 2.582 0 4.581-1.014 6.003-2.924v2.67h3.39V96.814c0-5.124-2.331-7.729-6.941-7.729zm81.274 0c-5.635 0-9.137 3.708-9.137 9.68 0 5.967 3.502 9.673 9.137 9.673 5.659 0 9.176-3.706 9.176-9.674 0-5.97-3.517-9.68-9.176-9.68zm21.113.107c-2.165 0-3.922 1.175-5.024 3.326v-3h-3.421v18.486h3.748v-9.277c0-3.896 1.63-6.033 4.595-6.033.428 0 .844.064 1.348.207l.242.07.125-3.65-1.613-.13zm-38.26.113c-4.064 0-6.795 1.987-6.795 4.953 0 2.603 1.788 3.977 5.086 5.58 2.077 1.027 3.17 1.627 3.17 3.067 0 1.475-1.341 2.434-3.408 2.434-1.473 0-3.099-.42-4.707-1.206l-.276-.138-.123 3.26.13.052a13.06 13.06 0 004.831.918c4.586 0 7.549-2.189 7.549-5.57 0-2.823-1.879-4.249-5.125-5.764-2.38-1.114-3.38-1.775-3.38-2.955 0-1.122 1.111-1.853 2.825-1.853 1.55 0 3.065.342 4.496 1.023l.264.125.17-3.187-.145-.057c-1.562-.451-3.09-.682-4.562-.682zm-35.22.213l9.061 18.486 9.313-18.486h-3.918l-5.317 10.67-4.912-10.67h-4.226zm20.28 0v18.486h3.752V89.518h-3.752zm32.123 2.526c3.165 0 5.207 2.623 5.207 6.683 0 4.035-2.042 6.643-5.207 6.643-3.113 0-5.205-2.669-5.205-6.643 0-3.992 2.092-6.683 5.205-6.683zm-63.396.039c3.102 0 4.949 2.465 4.949 6.61 0 3.945-1.913 6.503-4.88 6.503-2.853 0-4.628-2.495-4.628-6.504 0-4.015 1.789-6.61 4.559-6.61zm-16.543 6.992h1.928v1.13c0 3.187-1.916 5.241-4.885 5.241-1.81 0-3.078-1.193-3.078-2.9 0-2.238 2.144-3.471 6.035-3.471z"/></svg>